<?xml version="1.0" encoding="utf-8"?>
<!-- Generator: Adobe Illustrator 23.0.2, SVG Export Plug-In . SVG Version: 6.00 Build 0)  -->
<svg version="1.1" id="Livello_1" xmlns="http://www.w3.org/2000/svg" xmlns:xlink="http://www.w3.org/1999/xlink" x="0px" y="0px"
	 viewBox="0 0 1000 1000" style="enable-background:new 0 0 1000 1000;" xml:space="preserve">
<style type="text/css">
	.st0{display:none;}
	.st1{display:inline;fill:url(#SVGID_1_);stroke:#000000;stroke-miterlimit:10;}
	.st2{display:inline;fill:url(#SVGID_2_);stroke:#000000;stroke-miterlimit:10;}
	.st3{display:inline;fill:url(#SVGID_3_);stroke:#000000;stroke-miterlimit:10;}
	.st4{display:inline;fill:url(#SVGID_4_);stroke:#000000;stroke-miterlimit:10;}
	.st5{display:inline;fill:url(#SVGID_5_);stroke:#000000;stroke-miterlimit:10;}
	.st6{display:inline;fill:url(#SVGID_6_);stroke:#000000;stroke-miterlimit:10;}
	.st7{display:inline;fill:url(#SVGID_7_);stroke:#000000;stroke-miterlimit:10;}
	.st8{display:inline;fill:url(#SVGID_8_);stroke:#000000;stroke-miterlimit:10;}
	.st9{display:inline;fill:url(#SVGID_9_);stroke:#000000;stroke-miterlimit:10;}
	.st10{display:inline;fill:url(#SVGID_10_);stroke:#000000;stroke-miterlimit:10;}
	.st11{display:inline;fill:url(#SVGID_11_);stroke:#000000;stroke-miterlimit:10;}
	.st12{display:inline;fill:url(#SVGID_12_);stroke:#000000;stroke-miterlimit:10;}
	.st13{display:inline;fill:url(#SVGID_13_);stroke:#000000;stroke-miterlimit:10;}
	.st14{display:inline;fill:url(#SVGID_14_);stroke:#000000;stroke-miterlimit:10;}
	.st15{display:inline;fill:url(#SVGID_15_);stroke:#000000;stroke-miterlimit:10;}
	.st16{display:inline;fill:url(#SVGID_16_);stroke:#000000;stroke-miterlimit:10;}
	.st17{display:inline;fill:url(#SVGID_17_);stroke:#000000;stroke-miterlimit:10;}
	.st18{display:inline;fill:url(#SVGID_18_);stroke:#000000;stroke-miterlimit:10;}
	.st19{fill:#FFFFFF;}
</style>
<g class="st0">
	
		<linearGradient id="SVGID_1_" gradientUnits="userSpaceOnUse" x1="93.9" y1="-193.8" x2="93.9" y2="-389.6" gradientTransform="matrix(1 0 0 1 0 800)">
		<stop  offset="0" style="stop-color:#1A8D4C"/>
		<stop  offset="1" style="stop-color:#66BA6B"/>
	</linearGradient>
	<path class="st1" d="M76.2,606.2h35.4c1.6,0,3-1.3,3-3l0,0V413.4c0-1.6-1.3-3-3-3l0,0H76.2c-1.6,0-3,1.3-3,3l0,0v189.8
		C73.2,604.8,74.5,606.2,76.2,606.2L76.2,606.2z"/>
	
		<linearGradient id="SVGID_2_" gradientUnits="userSpaceOnUse" x1="212" y1="-193.8" x2="212" y2="-389.5" gradientTransform="matrix(1 0 0 1 0 800)">
		<stop  offset="0" style="stop-color:#1A8D4C"/>
		<stop  offset="1" style="stop-color:#66BA6B"/>
	</linearGradient>
	<path class="st2" d="M127.5,447.1h53.3c1.6,0,3,1.3,3,3l0,0v153.1c0,1.6,1.3,3,3,3l0,0h42.4c1.6,0,3-1.3,3-3l0,0v-153
		c0-1.6,1.3-3,3-3l0,0h61.3c1.6,0,3-1.3,3-3l0,0v-30.7c0-1.6-1.3-3-3-3l0,0h-169c-1.6,0-3,1.3-3,3l0,0v30.7
		C124.6,445.9,125.9,447.1,127.5,447.1z"/>
	
		<linearGradient id="SVGID_3_" gradientUnits="userSpaceOnUse" x1="331.6973" y1="-193.8" x2="331.6973" y2="-389.6" gradientTransform="matrix(1 0 0 1 0 800)">
		<stop  offset="0" style="stop-color:#1A8D4C"/>
		<stop  offset="1" style="stop-color:#66BA6B"/>
	</linearGradient>
	<path class="st3" d="M313.7,606.2h36c1.6,0,3-1.3,3-3l0,0V413.4c0-1.6-1.3-3-3-3l0,0h-36c-1.6,0-3,1.3-3,3l0,0v189.8
		c-0.1,1.6,1.2,2.9,2.8,3C313.5,606.2,313.6,606.2,313.7,606.2z"/>
	
		<linearGradient id="SVGID_4_" gradientUnits="userSpaceOnUse" x1="721.9563" y1="-194.1" x2="721.9563" y2="-552.5324" gradientTransform="matrix(1 0 0 1 0 800)">
		<stop  offset="0" style="stop-color:#1A8D4C"/>
		<stop  offset="1" style="stop-color:#66BA6B"/>
	</linearGradient>
	<path class="st4" d="M702.6,247.6L497.2,311c-1.3,0.4-2.2,1.6-2.2,3v28.4c0,1.7,1.4,3.1,3.1,3c0.2,0,0.4,0,0.5-0.1l62.3-14
		c1.6-0.4,3.2,0.6,3.6,2.2c0.1,0.2,0.1,0.5,0.1,0.7v268.7c0,1.6,1.3,3,3,3l0,0h378.3c1.6,0,3-1.3,3-3l0,0V449.2
		c0.1-0.9-0.4-1.8-1.2-2.3L705.2,248.3C704.6,247.5,703.5,247.3,702.6,247.6z M920.1,595.2H721.7c-1.6,0-3-1.3-3-3l0,0v-30.1
		c0-1.6,1.3-3,2.9-3c0.1,0,0.3,0,0.4,0L920.5,575c1.6,0.1,2.8,1.4,2.8,3v14.3C923.1,593.9,921.8,595.1,920.1,595.2z M919.8,562.7
		l-198.4-19.8c-1.5-0.2-2.7-1.4-2.8-3v-42.2c0-1.7,1.4-3.1,3.1-3c0.2,0,0.3,0,0.5,0l198.4,36c1.5,0.3,2.5,1.5,2.5,3v25.7
		c0,1.7-1.3,3.1-3,3.2C920,562.7,919.9,562.7,919.8,562.7z M919.5,518.8L721,471.7c-1.4-0.3-2.3-1.6-2.3-3v-45.5
		c0-1.8,1.5-3.1,3.3-3.1c0.2,0,0.5,0,0.7,0.1l198.4,59c1.3,0.4,2.2,1.6,2.2,3v33.7c-0.1,1.8-1.6,3.1-3.3,3
		C919.8,518.9,919.6,518.9,919.5,518.8L919.5,518.8z M919,469.7l-198.4-75.9c-1.1-0.5-1.9-1.6-2-2.8v-62.8c0-1.7,1.5-3.1,3.2-3
		c0.5,0,1,0.1,1.4,0.4l198.4,118.6c1,0.5,1.6,1.6,1.5,2.7V467c-0.2,1.7-1.7,3-3.4,2.8C919.4,469.8,919.2,469.8,919,469.7z"/>
	
		<linearGradient id="SVGID_5_" gradientUnits="userSpaceOnUse" x1="104.2" y1="-88.2" x2="104.2" y2="-182.7" gradientTransform="matrix(1 0 0 1 0 800)">
		<stop  offset="0" style="stop-color:#1A8D4C"/>
		<stop  offset="1" style="stop-color:#66BA6B"/>
	</linearGradient>
	<path class="st5" d="M134,711.8H74.4v-94.5H134v14.3H91v25.6h40.5v13.6H91v26.7h43V711.8z"/>
	
		<linearGradient id="SVGID_6_" gradientUnits="userSpaceOnUse" x1="193.1" y1="-88.21" x2="193.1" y2="-162.61" gradientTransform="matrix(1 0 0 1 0 800)">
		<stop  offset="0" style="stop-color:#1A8D4C"/>
		<stop  offset="1" style="stop-color:#66BA6B"/>
	</linearGradient>
	<path class="st6" d="M161.4,638.6h15.9v13h1c1.8-5.8,7.3-14.1,21.9-14.1s24.6,8.3,24.6,25.1v49.3h-16.3v-44.7
		c0-11-5.8-15.6-14.1-15.6c-10.8,0-16.6,8-16.6,19.4v40.8h-16.3L161.4,638.6z"/>
	
		<linearGradient id="SVGID_7_" gradientUnits="userSpaceOnUse" x1="276.15" y1="-88" x2="276.15" y2="-162.6" gradientTransform="matrix(1 0 0 1 0 800)">
		<stop  offset="0" style="stop-color:#1A8D4C"/>
		<stop  offset="1" style="stop-color:#66BA6B"/>
	</linearGradient>
	<path class="st7" d="M255.5,638.6h16.3V650h0.8c1.7-5,7-12.6,18.9-12.6c1.8,0,3.7,0.1,5.5,0.5v14.8c-2.2-0.5-4.5-0.6-6.8-0.5
		c-12.3,0-18.1,7.1-18.1,16.9V712h-16.8v-73.4H255.5L255.5,638.6z"/>
	
		<linearGradient id="SVGID_8_" gradientUnits="userSpaceOnUse" x1="323.75" y1="-88.2" x2="323.75" y2="-152" gradientTransform="matrix(1 0 0 1 0 800)">
		<stop  offset="0" style="stop-color:#1A8D4C"/>
		<stop  offset="1" style="stop-color:#66BA6B"/>
	</linearGradient>
	<path class="st8" d="M316.6,648h14.3v63.8h-14.3V648z"/>
	
		<linearGradient id="SVGID_9_" gradientUnits="userSpaceOnUse" x1="387.5" y1="-86.9" x2="387.5" y2="-163" gradientTransform="matrix(1 0 0 1 0 800)">
		<stop  offset="0" style="stop-color:#1A8D4C"/>
		<stop  offset="1" style="stop-color:#66BA6B"/>
	</linearGradient>
	<path class="st9" d="M356.5,669.9c0-19.8,12.1-32.9,32-32.9c18.9,0,29.2,11.6,29.6,24.9h-15.3c-0.7-4.7-4-11.3-13.8-11.3
		c-10.3,0-15.9,7.8-15.9,19.6v9.6c0,12.1,6,19.3,15.9,19.3s13.1-4.8,14.1-10.1h15.4c-0.5,14.3-11.1,24.1-30.1,24.1
		c-19.4,0-31.9-12.3-31.9-33.2L356.5,669.9L356.5,669.9L356.5,669.9z"/>
	
		<linearGradient id="SVGID_10_" gradientUnits="userSpaceOnUse" x1="473.65" y1="-86.9" x2="473.65" y2="-162.9" gradientTransform="matrix(1 0 0 1 0 800)">
		<stop  offset="0" style="stop-color:#1A8D4C"/>
		<stop  offset="1" style="stop-color:#66BA6B"/>
	</linearGradient>
	<path class="st10" d="M506.6,670.6v8.8c0,21.6-13.5,33.7-32.9,33.7s-33-12-33-33.7v-8.8c0-20.3,13.5-33.5,33-33.5
		C493.3,637.1,506.6,649.8,506.6,670.6z M457.1,671.1v8c0,11.6,5.5,20.6,16.4,20.6s16.3-9.1,16.3-20.6v-8c0-11.6-5.6-20.8-16.3-20.8
		S457.1,659.5,457.1,671.1L457.1,671.1z"/>
	
		<linearGradient id="SVGID_11_" gradientUnits="userSpaceOnUse" x1="607.7" y1="-88.54" x2="607.7" y2="-183.2" gradientTransform="matrix(1 0 0 1 0 800)">
		<stop  offset="0" style="stop-color:#1A8D4C"/>
		<stop  offset="1" style="stop-color:#66BA6B"/>
	</linearGradient>
	<path class="st11" d="M578.2,711.3v-94.5h59v14.5H595v27.6h38.5v14.3H595v38.4h-16.8V711.3L578.2,711.3z"/>
	
		<linearGradient id="SVGID_12_" gradientUnits="userSpaceOnUse" x1="688.2001" y1="-87.8" x2="688.2001" y2="-163.6" gradientTransform="matrix(1 0 0 1 0 800)">
		<stop  offset="0" style="stop-color:#1A8D4C"/>
		<stop  offset="1" style="stop-color:#66BA6B"/>
	</linearGradient>
	<path class="st12" d="M656.4,679.1v-9.3c0-21.3,13.8-33.4,31.9-33.4c18.6,0,31.7,12.8,31.7,33.4v8.5h-47.3v3.5
		c0,10,6.1,17.3,16.6,17.3c7.8,0,13.3-3.7,14.3-8.3h15.8c-0.8,8.8-9.8,21.4-30.1,21.4S656.4,700.3,656.4,679.1z M704.1,667.8V667
		c0-10.5-6.3-17.4-15.6-17.4s-15.8,7-15.8,17.4v0.8H704.1z"/>
	
		<linearGradient id="SVGID_13_" gradientUnits="userSpaceOnUse" x1="767.85" y1="-88.7099" x2="767.85" y2="-163.2733" gradientTransform="matrix(1 0 0 1 0 800)">
		<stop  offset="0" style="stop-color:#1A8D4C"/>
		<stop  offset="1" style="stop-color:#66BA6B"/>
	</linearGradient>
	<path class="st13" d="M747.2,637.9h16.3v11.5h0.8c1.7-5,7-12.6,18.9-12.6c1.8,0,3.7,0.1,5.5,0.5V652c-2.2-0.5-4.5-0.6-6.8-0.5
		c-12.3,0-18.1,7.1-18.1,16.9v42.8H747v-73.4L747.2,637.9L747.2,637.9z"/>
	
		<linearGradient id="SVGID_14_" gradientUnits="userSpaceOnUse" x1="860.4501" y1="-88.7999" x2="860.4501" y2="-163.2" gradientTransform="matrix(1 0 0 1 0 800)">
		<stop  offset="0" style="stop-color:#1A8D4C"/>
		<stop  offset="1" style="stop-color:#66BA6B"/>
	</linearGradient>
	<path class="st14" d="M808.7,637.9h15.9v12h0.8c1.7-5.3,6.6-13.1,19.9-13.1c11.1,0,17.9,5.8,20.3,13.8h0.7
		c2.7-6.8,9.6-13.8,22.2-13.8c15,0,23.8,8.6,23.8,23.1v51.3H896v-46.3c0-9.3-5-14.3-13.5-14.3c-8,0-14.1,5.8-14.1,15.4v45.2h-15.9
		v-46c0-9.5-5.7-14.6-13.8-14.6s-13.8,5.7-13.8,15.3v45.3h-16.3L808.7,637.9L808.7,637.9z"/>
	
		<linearGradient id="SVGID_15_" gradientUnits="userSpaceOnUse" x1="943.85" y1="-88" x2="943.85" y2="-152.43" gradientTransform="matrix(1 0 0 1 0 800)">
		<stop  offset="0" style="stop-color:#1A8D4C"/>
		<stop  offset="1" style="stop-color:#66BA6B"/>
	</linearGradient>
	<path class="st15" d="M936.7,647.5H951V712h-14.3V647.5z"/>
	
		<linearGradient id="SVGID_16_" gradientUnits="userSpaceOnUse" x1="451.4" y1="-194.3895" x2="451.4" y2="-423.2305" gradientTransform="matrix(1 0 0 1 0 800)">
		<stop  offset="0" style="stop-color:#1A8D4C"/>
		<stop  offset="1" style="stop-color:#66BA6B"/>
	</linearGradient>
	<path class="st16" d="M516.6,453.1l-104.8,27.1c-1.7,0.4-3.4-0.6-3.8-2.3c0-0.1,0-0.2-0.1-0.3v-35.2c0-1.4,1-2.6,2.3-3l119.9-31.2
		c1.3-0.4,2.3-1.6,2.3-3V380c0-1.7-1.5-3.1-3.2-3.1c-0.2,0-0.4,0-0.6,0.1L380,415.5c-5.6,1.5-9.6,6.6-9.6,12.5v23.8l0,0v58.3
		c0,7.1,5.7,12.9,12.8,12.9c1.1,0,2.2-0.1,3.3-0.4l104.8-27.1c1.6-0.4,3.3,0.6,3.7,2.2c0.1,0.3,0.1,0.5,0.1,0.8v41.9
		c0,1.4-1,2.6-2.3,3l-120.2,31.4c-1.4,0.4-2.3,1.6-2.3,3v25.1c0,1.7,1.5,3.1,3.2,3.1c0.2,0,0.4,0,0.6-0.1L522.9,567
		c5.7-1.5,9.6-6.6,9.6-12.5v-89c0-7.1-5.7-12.8-12.7-12.9C518.7,452.7,517.6,452.8,516.6,453.1z"/>
	
		<linearGradient id="SVGID_17_" gradientUnits="userSpaceOnUse" x1="325.05" y1="-162.6" x2="325.05" y2="-176.72" gradientTransform="matrix(1 0 0 1 0 800)">
		<stop  offset="0" style="stop-color:#1A8D4C"/>
		<stop  offset="1" style="stop-color:#66BA6B"/>
	</linearGradient>
	<rect x="318" y="623.3" class="st17" width="14.1" height="14.1"/>
	
		<linearGradient id="SVGID_18_" gradientUnits="userSpaceOnUse" x1="943.75" y1="-162.6" x2="943.75" y2="-176.72" gradientTransform="matrix(1 0 0 1 0 800)">
		<stop  offset="0" style="stop-color:#1A8D4C"/>
		<stop  offset="1" style="stop-color:#66BA6B"/>
	</linearGradient>
	<rect x="936.7" y="623.3" class="st18" width="14.1" height="14.1"/>
</g>
<path class="st19" d="M457.4,105.2L4.7,244.9c-3,0.8-4.9,3.5-4.8,6.7v62.6c0,3.8,3.1,6.8,6.8,6.7c0.4,0,0.8,0,1.2-0.1L145.1,290
	c3.5-0.8,7.1,1.4,7.9,4.9c0.1,0.5,0.1,1.1,0.1,1.6v592.2c0,3.7,2.9,6.5,6.5,6.5c0,0,0,0,0.1,0h833.7c3.7,0,6.5-2.9,6.5-6.5l0,0
	V549.4c0.1-2-0.8-4.1-2.6-5.2L463.2,106.7C461.9,104.9,459.4,104.2,457.4,105.2z M936.8,871.1H499.5c-3.7,0-6.5-2.9-6.7-6.5l0,0
	v-66.3c0-3.7,2.9-6.5,6.5-6.7c0.3,0,0.5,0,0.8,0l437.4,34.8c3.4,0.3,6.1,3.1,6.2,6.5v31.5C943.3,868.1,940.4,870.9,936.8,871.1z
	 M936,799.4l-437.4-43.6c-3.4-0.4-6-3.1-6.2-6.5v-92.9c0-3.8,3.1-6.8,6.9-6.7c0.4,0,0.8,0,1.1,0.1l437.4,79.5
	c3.1,0.5,5.4,3.4,5.4,6.5v56.8c0.1,3.8-2.9,6.9-6.7,6.9C936.6,799.4,936.3,799.4,936,799.4z M935.3,702.8L498,598.9
	c-3-0.7-5.2-3.4-5.2-6.5V492.1c0.1-3.9,3.4-6.9,7.2-6.8c0.5,0,1.1,0.1,1.5,0.3l437.4,129.8c3,0.8,4.9,3.5,4.8,6.5v74.3
	c-0.1,3.8-3.4,6.9-7.3,6.8C936,702.9,935.7,702.8,935.3,702.8L935.3,702.8z M934.2,594.4L496.9,427.2c-2.6-1.1-4.2-3.5-4.3-6.2
	V282.7c0.1-3.8,3.3-6.8,7.1-6.7c1.1,0,2.2,0.3,3.1,0.8L940.1,538c2.2,1.1,3.4,3.4,3.3,5.8v44.7c-0.4,3.8-3.8,6.5-7.6,6.2
	C935.3,594.7,934.8,594.7,934.2,594.4z"/>
</svg>
